<?xml version="1.0" encoding="utf-8" standalone="no"?>
<!DOCTYPE svg PUBLIC "-//W3C//DTD SVG 1.1//EN"
  "http://www.w3.org/Graphics/SVG/1.1/DTD/svg11.dtd">
<svg xmlns:xlink="http://www.w3.org/1999/xlink" width="460.8pt" height="345.6pt" viewBox="0 0 460.8 345.6" xmlns="http://www.w3.org/2000/svg" version="1.1">
 <metadata>
  <rdf:RDF xmlns:dc="http://purl.org/dc/elements/1.1/" xmlns:cc="http://creativecommons.org/ns#" xmlns:rdf="http://www.w3.org/1999/02/22-rdf-syntax-ns#">
   <cc:Work>
    <dc:type rdf:resource="http://purl.org/dc/dcmitype/StillImage"/>
    <dc:date>2022-10-10T17:39:30.482582</dc:date>
    <dc:format>image/svg+xml</dc:format>
    <dc:creator>
     <cc:Agent>
      <dc:title>Matplotlib v3.6.0, https://matplotlib.org/</dc:title>
     </cc:Agent>
    </dc:creator>
   </cc:Work>
  </rdf:RDF>
 </metadata>
 <defs>
  <style type="text/css">*{stroke-linejoin: round; stroke-linecap: butt}</style>
 </defs>
 <g id="figure_1">
  <g id="patch_1">
   <path d="M 0 345.6 
L 460.8 345.6 
L 460.8 0 
L 0 0 
z
" style="fill: #ffffff"/>
  </g>
  <g id="axes_1">
   <g id="PathCollection_1">
    <defs>
     <path id="C0_0_26d7e26247" d="M 0 5 
C 1.326016 5 2.597899 4.473168 3.535534 3.535534 
C 4.473168 2.597899 5 1.326016 5 -0 
C 5 -1.326016 4.473168 -2.597899 3.535534 -3.535534 
C 2.597899 -4.473168 1.326016 -5 0 -5 
C -1.326016 -5 -2.597899 -4.473168 -3.535534 -3.535534 
C -4.473168 -2.597899 -5 -1.326016 -5 0 
C -5 1.326016 -4.473168 2.597899 -3.535534 3.535534 
C -2.597899 4.473168 -1.326016 5 0 5 
z
"/>
    </defs>
    <g clip-path="url(#p9011135d80)">
     <use xlink:href="#C0_0_26d7e26247" x="8.131765" y="319.171765" style="stroke: #000000"/>
    </g>
    <g clip-path="url(#p9011135d80)">
     <use xlink:href="#C0_0_26d7e26247" x="8.131765" y="286.644706" style="fill: #808080; stroke: #808080"/>
    </g>
    <g clip-path="url(#p9011135d80)">
     <use xlink:href="#C0_0_26d7e26247" x="8.131765" y="254.117647" style="fill: #a9a9a9; stroke: #a9a9a9"/>
    </g>
    <g clip-path="url(#p9011135d80)">
     <use xlink:href="#C0_0_26d7e26247" x="8.131765" y="221.590588" style="fill: #d3d3d3; stroke: #d3d3d3"/>
    </g>
    <g clip-path="url(#p9011135d80)">
     <use xlink:href="#C0_0_26d7e26247" x="8.131765" y="189.063529" style="fill: #bc8f8f; stroke: #bc8f8f"/>
    </g>
    <g clip-path="url(#p9011135d80)">
     <use xlink:href="#C0_0_26d7e26247" x="8.131765" y="156.536471" style="fill: #f08080; stroke: #f08080"/>
    </g>
    <g clip-path="url(#p9011135d80)">
     <use xlink:href="#C0_0_26d7e26247" x="8.131765" y="124.009412" style="fill: #cd5c5c; stroke: #cd5c5c"/>
    </g>
    <g clip-path="url(#p9011135d80)">
     <use xlink:href="#C0_0_26d7e26247" x="8.131765" y="91.482353" style="fill: #a52a2a; stroke: #a52a2a"/>
    </g>
    <g clip-path="url(#p9011135d80)">
     <use xlink:href="#C0_0_26d7e26247" x="8.131765" y="58.955294" style="fill: #b22222; stroke: #b22222"/>
    </g>
    <g clip-path="url(#p9011135d80)">
     <use xlink:href="#C0_0_26d7e26247" x="8.131765" y="26.428235" style="fill: #800000; stroke: #800000"/>
    </g>
   </g>
   <g id="text_1">
    <!-- 4NI0_1 Chain A|Hemoglobin subunit alpha|Homo sapiens (9606) -->
    <g transform="translate(24.395294 321.813952) scale(0.1 -0.1)">
     <defs>
      <path id="DejaVuSans-34" d="M 2419 4116 
L 825 1625 
L 2419 1625 
L 2419 4116 
z
M 2253 4666 
L 3047 4666 
L 3047 1625 
L 3713 1625 
L 3713 1100 
L 3047 1100 
L 3047 0 
L 2419 0 
L 2419 1100 
L 313 1100 
L 313 1709 
L 2253 4666 
z
" transform="scale(0.015625)"/>
      <path id="DejaVuSans-4e" d="M 628 4666 
L 1478 4666 
L 3547 763 
L 3547 4666 
L 4159 4666 
L 4159 0 
L 3309 0 
L 1241 3903 
L 1241 0 
L 628 0 
L 628 4666 
z
" transform="scale(0.015625)"/>
      <path id="DejaVuSans-49" d="M 628 4666 
L 1259 4666 
L 1259 0 
L 628 0 
L 628 4666 
z
" transform="scale(0.015625)"/>
      <path id="DejaVuSans-30" d="M 2034 4250 
Q 1547 4250 1301 3770 
Q 1056 3291 1056 2328 
Q 1056 1369 1301 889 
Q 1547 409 2034 409 
Q 2525 409 2770 889 
Q 3016 1369 3016 2328 
Q 3016 3291 2770 3770 
Q 2525 4250 2034 4250 
z
M 2034 4750 
Q 2819 4750 3233 4129 
Q 3647 3509 3647 2328 
Q 3647 1150 3233 529 
Q 2819 -91 2034 -91 
Q 1250 -91 836 529 
Q 422 1150 422 2328 
Q 422 3509 836 4129 
Q 1250 4750 2034 4750 
z
" transform="scale(0.015625)"/>
      <path id="DejaVuSans-5f" d="M 3263 -1063 
L 3263 -1509 
L -63 -1509 
L -63 -1063 
L 3263 -1063 
z
" transform="scale(0.015625)"/>
      <path id="DejaVuSans-31" d="M 794 531 
L 1825 531 
L 1825 4091 
L 703 3866 
L 703 4441 
L 1819 4666 
L 2450 4666 
L 2450 531 
L 3481 531 
L 3481 0 
L 794 0 
L 794 531 
z
" transform="scale(0.015625)"/>
      <path id="DejaVuSans-20" transform="scale(0.015625)"/>
      <path id="DejaVuSans-43" d="M 4122 4306 
L 4122 3641 
Q 3803 3938 3442 4084 
Q 3081 4231 2675 4231 
Q 1875 4231 1450 3742 
Q 1025 3253 1025 2328 
Q 1025 1406 1450 917 
Q 1875 428 2675 428 
Q 3081 428 3442 575 
Q 3803 722 4122 1019 
L 4122 359 
Q 3791 134 3420 21 
Q 3050 -91 2638 -91 
Q 1578 -91 968 557 
Q 359 1206 359 2328 
Q 359 3453 968 4101 
Q 1578 4750 2638 4750 
Q 3056 4750 3426 4639 
Q 3797 4528 4122 4306 
z
" transform="scale(0.015625)"/>
      <path id="DejaVuSans-68" d="M 3513 2113 
L 3513 0 
L 2938 0 
L 2938 2094 
Q 2938 2591 2744 2837 
Q 2550 3084 2163 3084 
Q 1697 3084 1428 2787 
Q 1159 2491 1159 1978 
L 1159 0 
L 581 0 
L 581 4863 
L 1159 4863 
L 1159 2956 
Q 1366 3272 1645 3428 
Q 1925 3584 2291 3584 
Q 2894 3584 3203 3211 
Q 3513 2838 3513 2113 
z
" transform="scale(0.015625)"/>
      <path id="DejaVuSans-61" d="M 2194 1759 
Q 1497 1759 1228 1600 
Q 959 1441 959 1056 
Q 959 750 1161 570 
Q 1363 391 1709 391 
Q 2188 391 2477 730 
Q 2766 1069 2766 1631 
L 2766 1759 
L 2194 1759 
z
M 3341 1997 
L 3341 0 
L 2766 0 
L 2766 531 
Q 2569 213 2275 61 
Q 1981 -91 1556 -91 
Q 1019 -91 701 211 
Q 384 513 384 1019 
Q 384 1609 779 1909 
Q 1175 2209 1959 2209 
L 2766 2209 
L 2766 2266 
Q 2766 2663 2505 2880 
Q 2244 3097 1772 3097 
Q 1472 3097 1187 3025 
Q 903 2953 641 2809 
L 641 3341 
Q 956 3463 1253 3523 
Q 1550 3584 1831 3584 
Q 2591 3584 2966 3190 
Q 3341 2797 3341 1997 
z
" transform="scale(0.015625)"/>
      <path id="DejaVuSans-69" d="M 603 3500 
L 1178 3500 
L 1178 0 
L 603 0 
L 603 3500 
z
M 603 4863 
L 1178 4863 
L 1178 4134 
L 603 4134 
L 603 4863 
z
" transform="scale(0.015625)"/>
      <path id="DejaVuSans-6e" d="M 3513 2113 
L 3513 0 
L 2938 0 
L 2938 2094 
Q 2938 2591 2744 2837 
Q 2550 3084 2163 3084 
Q 1697 3084 1428 2787 
Q 1159 2491 1159 1978 
L 1159 0 
L 581 0 
L 581 3500 
L 1159 3500 
L 1159 2956 
Q 1366 3272 1645 3428 
Q 1925 3584 2291 3584 
Q 2894 3584 3203 3211 
Q 3513 2838 3513 2113 
z
" transform="scale(0.015625)"/>
      <path id="DejaVuSans-41" d="M 2188 4044 
L 1331 1722 
L 3047 1722 
L 2188 4044 
z
M 1831 4666 
L 2547 4666 
L 4325 0 
L 3669 0 
L 3244 1197 
L 1141 1197 
L 716 0 
L 50 0 
L 1831 4666 
z
" transform="scale(0.015625)"/>
      <path id="DejaVuSans-7c" d="M 1344 4891 
L 1344 -1509 
L 813 -1509 
L 813 4891 
L 1344 4891 
z
" transform="scale(0.015625)"/>
      <path id="DejaVuSans-48" d="M 628 4666 
L 1259 4666 
L 1259 2753 
L 3553 2753 
L 3553 4666 
L 4184 4666 
L 4184 0 
L 3553 0 
L 3553 2222 
L 1259 2222 
L 1259 0 
L 628 0 
L 628 4666 
z
" transform="scale(0.015625)"/>
      <path id="DejaVuSans-65" d="M 3597 1894 
L 3597 1613 
L 953 1613 
Q 991 1019 1311 708 
Q 1631 397 2203 397 
Q 2534 397 2845 478 
Q 3156 559 3463 722 
L 3463 178 
Q 3153 47 2828 -22 
Q 2503 -91 2169 -91 
Q 1331 -91 842 396 
Q 353 884 353 1716 
Q 353 2575 817 3079 
Q 1281 3584 2069 3584 
Q 2775 3584 3186 3129 
Q 3597 2675 3597 1894 
z
M 3022 2063 
Q 3016 2534 2758 2815 
Q 2500 3097 2075 3097 
Q 1594 3097 1305 2825 
Q 1016 2553 972 2059 
L 3022 2063 
z
" transform="scale(0.015625)"/>
      <path id="DejaVuSans-6d" d="M 3328 2828 
Q 3544 3216 3844 3400 
Q 4144 3584 4550 3584 
Q 5097 3584 5394 3201 
Q 5691 2819 5691 2113 
L 5691 0 
L 5113 0 
L 5113 2094 
Q 5113 2597 4934 2840 
Q 4756 3084 4391 3084 
Q 3944 3084 3684 2787 
Q 3425 2491 3425 1978 
L 3425 0 
L 2847 0 
L 2847 2094 
Q 2847 2600 2669 2842 
Q 2491 3084 2119 3084 
Q 1678 3084 1418 2786 
Q 1159 2488 1159 1978 
L 1159 0 
L 581 0 
L 581 3500 
L 1159 3500 
L 1159 2956 
Q 1356 3278 1631 3431 
Q 1906 3584 2284 3584 
Q 2666 3584 2933 3390 
Q 3200 3197 3328 2828 
z
" transform="scale(0.015625)"/>
      <path id="DejaVuSans-6f" d="M 1959 3097 
Q 1497 3097 1228 2736 
Q 959 2375 959 1747 
Q 959 1119 1226 758 
Q 1494 397 1959 397 
Q 2419 397 2687 759 
Q 2956 1122 2956 1747 
Q 2956 2369 2687 2733 
Q 2419 3097 1959 3097 
z
M 1959 3584 
Q 2709 3584 3137 3096 
Q 3566 2609 3566 1747 
Q 3566 888 3137 398 
Q 2709 -91 1959 -91 
Q 1206 -91 779 398 
Q 353 888 353 1747 
Q 353 2609 779 3096 
Q 1206 3584 1959 3584 
z
" transform="scale(0.015625)"/>
      <path id="DejaVuSans-67" d="M 2906 1791 
Q 2906 2416 2648 2759 
Q 2391 3103 1925 3103 
Q 1463 3103 1205 2759 
Q 947 2416 947 1791 
Q 947 1169 1205 825 
Q 1463 481 1925 481 
Q 2391 481 2648 825 
Q 2906 1169 2906 1791 
z
M 3481 434 
Q 3481 -459 3084 -895 
Q 2688 -1331 1869 -1331 
Q 1566 -1331 1297 -1286 
Q 1028 -1241 775 -1147 
L 775 -588 
Q 1028 -725 1275 -790 
Q 1522 -856 1778 -856 
Q 2344 -856 2625 -561 
Q 2906 -266 2906 331 
L 2906 616 
Q 2728 306 2450 153 
Q 2172 0 1784 0 
Q 1141 0 747 490 
Q 353 981 353 1791 
Q 353 2603 747 3093 
Q 1141 3584 1784 3584 
Q 2172 3584 2450 3431 
Q 2728 3278 2906 2969 
L 2906 3500 
L 3481 3500 
L 3481 434 
z
" transform="scale(0.015625)"/>
      <path id="DejaVuSans-6c" d="M 603 4863 
L 1178 4863 
L 1178 0 
L 603 0 
L 603 4863 
z
" transform="scale(0.015625)"/>
      <path id="DejaVuSans-62" d="M 3116 1747 
Q 3116 2381 2855 2742 
Q 2594 3103 2138 3103 
Q 1681 3103 1420 2742 
Q 1159 2381 1159 1747 
Q 1159 1113 1420 752 
Q 1681 391 2138 391 
Q 2594 391 2855 752 
Q 3116 1113 3116 1747 
z
M 1159 2969 
Q 1341 3281 1617 3432 
Q 1894 3584 2278 3584 
Q 2916 3584 3314 3078 
Q 3713 2572 3713 1747 
Q 3713 922 3314 415 
Q 2916 -91 2278 -91 
Q 1894 -91 1617 61 
Q 1341 213 1159 525 
L 1159 0 
L 581 0 
L 581 4863 
L 1159 4863 
L 1159 2969 
z
" transform="scale(0.015625)"/>
      <path id="DejaVuSans-73" d="M 2834 3397 
L 2834 2853 
Q 2591 2978 2328 3040 
Q 2066 3103 1784 3103 
Q 1356 3103 1142 2972 
Q 928 2841 928 2578 
Q 928 2378 1081 2264 
Q 1234 2150 1697 2047 
L 1894 2003 
Q 2506 1872 2764 1633 
Q 3022 1394 3022 966 
Q 3022 478 2636 193 
Q 2250 -91 1575 -91 
Q 1294 -91 989 -36 
Q 684 19 347 128 
L 347 722 
Q 666 556 975 473 
Q 1284 391 1588 391 
Q 1994 391 2212 530 
Q 2431 669 2431 922 
Q 2431 1156 2273 1281 
Q 2116 1406 1581 1522 
L 1381 1569 
Q 847 1681 609 1914 
Q 372 2147 372 2553 
Q 372 3047 722 3315 
Q 1072 3584 1716 3584 
Q 2034 3584 2315 3537 
Q 2597 3491 2834 3397 
z
" transform="scale(0.015625)"/>
      <path id="DejaVuSans-75" d="M 544 1381 
L 544 3500 
L 1119 3500 
L 1119 1403 
Q 1119 906 1312 657 
Q 1506 409 1894 409 
Q 2359 409 2629 706 
Q 2900 1003 2900 1516 
L 2900 3500 
L 3475 3500 
L 3475 0 
L 2900 0 
L 2900 538 
Q 2691 219 2414 64 
Q 2138 -91 1772 -91 
Q 1169 -91 856 284 
Q 544 659 544 1381 
z
M 1991 3584 
L 1991 3584 
z
" transform="scale(0.015625)"/>
      <path id="DejaVuSans-74" d="M 1172 4494 
L 1172 3500 
L 2356 3500 
L 2356 3053 
L 1172 3053 
L 1172 1153 
Q 1172 725 1289 603 
Q 1406 481 1766 481 
L 2356 481 
L 2356 0 
L 1766 0 
Q 1100 0 847 248 
Q 594 497 594 1153 
L 594 3053 
L 172 3053 
L 172 3500 
L 594 3500 
L 594 4494 
L 1172 4494 
z
" transform="scale(0.015625)"/>
      <path id="DejaVuSans-70" d="M 1159 525 
L 1159 -1331 
L 581 -1331 
L 581 3500 
L 1159 3500 
L 1159 2969 
Q 1341 3281 1617 3432 
Q 1894 3584 2278 3584 
Q 2916 3584 3314 3078 
Q 3713 2572 3713 1747 
Q 3713 922 3314 415 
Q 2916 -91 2278 -91 
Q 1894 -91 1617 61 
Q 1341 213 1159 525 
z
M 3116 1747 
Q 3116 2381 2855 2742 
Q 2594 3103 2138 3103 
Q 1681 3103 1420 2742 
Q 1159 2381 1159 1747 
Q 1159 1113 1420 752 
Q 1681 391 2138 391 
Q 2594 391 2855 752 
Q 3116 1113 3116 1747 
z
" transform="scale(0.015625)"/>
      <path id="DejaVuSans-28" d="M 1984 4856 
Q 1566 4138 1362 3434 
Q 1159 2731 1159 2009 
Q 1159 1288 1364 580 
Q 1569 -128 1984 -844 
L 1484 -844 
Q 1016 -109 783 600 
Q 550 1309 550 2009 
Q 550 2706 781 3412 
Q 1013 4119 1484 4856 
L 1984 4856 
z
" transform="scale(0.015625)"/>
      <path id="DejaVuSans-39" d="M 703 97 
L 703 672 
Q 941 559 1184 500 
Q 1428 441 1663 441 
Q 2288 441 2617 861 
Q 2947 1281 2994 2138 
Q 2813 1869 2534 1725 
Q 2256 1581 1919 1581 
Q 1219 1581 811 2004 
Q 403 2428 403 3163 
Q 403 3881 828 4315 
Q 1253 4750 1959 4750 
Q 2769 4750 3195 4129 
Q 3622 3509 3622 2328 
Q 3622 1225 3098 567 
Q 2575 -91 1691 -91 
Q 1453 -91 1209 -44 
Q 966 3 703 97 
z
M 1959 2075 
Q 2384 2075 2632 2365 
Q 2881 2656 2881 3163 
Q 2881 3666 2632 3958 
Q 2384 4250 1959 4250 
Q 1534 4250 1286 3958 
Q 1038 3666 1038 3163 
Q 1038 2656 1286 2365 
Q 1534 2075 1959 2075 
z
" transform="scale(0.015625)"/>
      <path id="DejaVuSans-36" d="M 2113 2584 
Q 1688 2584 1439 2293 
Q 1191 2003 1191 1497 
Q 1191 994 1439 701 
Q 1688 409 2113 409 
Q 2538 409 2786 701 
Q 3034 994 3034 1497 
Q 3034 2003 2786 2293 
Q 2538 2584 2113 2584 
z
M 3366 4563 
L 3366 3988 
Q 3128 4100 2886 4159 
Q 2644 4219 2406 4219 
Q 1781 4219 1451 3797 
Q 1122 3375 1075 2522 
Q 1259 2794 1537 2939 
Q 1816 3084 2150 3084 
Q 2853 3084 3261 2657 
Q 3669 2231 3669 1497 
Q 3669 778 3244 343 
Q 2819 -91 2113 -91 
Q 1303 -91 875 529 
Q 447 1150 447 2328 
Q 447 3434 972 4092 
Q 1497 4750 2381 4750 
Q 2619 4750 2861 4703 
Q 3103 4656 3366 4563 
z
" transform="scale(0.015625)"/>
      <path id="DejaVuSans-29" d="M 513 4856 
L 1013 4856 
Q 1481 4119 1714 3412 
Q 1947 2706 1947 2009 
Q 1947 1309 1714 600 
Q 1481 -109 1013 -844 
L 513 -844 
Q 928 -128 1133 580 
Q 1338 1288 1338 2009 
Q 1338 2731 1133 3434 
Q 928 4138 513 4856 
z
" transform="scale(0.015625)"/>
     </defs>
     <use xlink:href="#DejaVuSans-34"/>
     <use xlink:href="#DejaVuSans-4e" x="63.623047"/>
     <use xlink:href="#DejaVuSans-49" x="138.427734"/>
     <use xlink:href="#DejaVuSans-30" x="167.919922"/>
     <use xlink:href="#DejaVuSans-5f" x="231.542969"/>
     <use xlink:href="#DejaVuSans-31" x="281.542969"/>
     <use xlink:href="#DejaVuSans-20" x="345.166016"/>
     <use xlink:href="#DejaVuSans-43" x="376.953125"/>
     <use xlink:href="#DejaVuSans-68" x="446.777344"/>
     <use xlink:href="#DejaVuSans-61" x="510.15625"/>
     <use xlink:href="#DejaVuSans-69" x="571.435547"/>
     <use xlink:href="#DejaVuSans-6e" x="599.21875"/>
     <use xlink:href="#DejaVuSans-20" x="662.597656"/>
     <use xlink:href="#DejaVuSans-41" x="694.384766"/>
     <use xlink:href="#DejaVuSans-7c" x="762.792969"/>
     <use xlink:href="#DejaVuSans-48" x="796.484375"/>
     <use xlink:href="#DejaVuSans-65" x="871.679688"/>
     <use xlink:href="#DejaVuSans-6d" x="933.203125"/>
     <use xlink:href="#DejaVuSans-6f" x="1030.615234"/>
     <use xlink:href="#DejaVuSans-67" x="1091.796875"/>
     <use xlink:href="#DejaVuSans-6c" x="1155.273438"/>
     <use xlink:href="#DejaVuSans-6f" x="1183.056641"/>
     <use xlink:href="#DejaVuSans-62" x="1244.238281"/>
     <use xlink:href="#DejaVuSans-69" x="1307.714844"/>
     <use xlink:href="#DejaVuSans-6e" x="1335.498047"/>
     <use xlink:href="#DejaVuSans-20" x="1398.876953"/>
     <use xlink:href="#DejaVuSans-73" x="1430.664062"/>
     <use xlink:href="#DejaVuSans-75" x="1482.763672"/>
     <use xlink:href="#DejaVuSans-62" x="1546.142578"/>
     <use xlink:href="#DejaVuSans-75" x="1609.619141"/>
     <use xlink:href="#DejaVuSans-6e" x="1672.998047"/>
     <use xlink:href="#DejaVuSans-69" x="1736.376953"/>
     <use xlink:href="#DejaVuSans-74" x="1764.160156"/>
     <use xlink:href="#DejaVuSans-20" x="1803.369141"/>
     <use xlink:href="#DejaVuSans-61" x="1835.15625"/>
     <use xlink:href="#DejaVuSans-6c" x="1896.435547"/>
     <use xlink:href="#DejaVuSans-70" x="1924.21875"/>
     <use xlink:href="#DejaVuSans-68" x="1987.695312"/>
     <use xlink:href="#DejaVuSans-61" x="2051.074219"/>
     <use xlink:href="#DejaVuSans-7c" x="2112.353516"/>
     <use xlink:href="#DejaVuSans-48" x="2146.044922"/>
     <use xlink:href="#DejaVuSans-6f" x="2221.240234"/>
     <use xlink:href="#DejaVuSans-6d" x="2282.421875"/>
     <use xlink:href="#DejaVuSans-6f" x="2379.833984"/>
     <use xlink:href="#DejaVuSans-20" x="2441.015625"/>
     <use xlink:href="#DejaVuSans-73" x="2472.802734"/>
     <use xlink:href="#DejaVuSans-61" x="2524.902344"/>
     <use xlink:href="#DejaVuSans-70" x="2586.181641"/>
     <use xlink:href="#DejaVuSans-69" x="2649.658203"/>
     <use xlink:href="#DejaVuSans-65" x="2677.441406"/>
     <use xlink:href="#DejaVuSans-6e" x="2738.964844"/>
     <use xlink:href="#DejaVuSans-73" x="2802.34375"/>
     <use xlink:href="#DejaVuSans-20" x="2854.443359"/>
     <use xlink:href="#DejaVuSans-28" x="2886.230469"/>
     <use xlink:href="#DejaVuSans-39" x="2925.244141"/>
     <use xlink:href="#DejaVuSans-36" x="2988.867188"/>
     <use xlink:href="#DejaVuSans-30" x="3052.490234"/>
     <use xlink:href="#DejaVuSans-36" x="3116.113281"/>
     <use xlink:href="#DejaVuSans-29" x="3179.736328"/>
    </g>
   </g>
   <g id="text_2">
    <!-- 4NI0_2 Chain B|Hemoglobin subunit beta|Homo sapiens (9606) -->
    <g transform="translate(24.395294 289.286893) scale(0.1 -0.1)">
     <defs>
      <path id="DejaVuSans-32" d="M 1228 531 
L 3431 531 
L 3431 0 
L 469 0 
L 469 531 
Q 828 903 1448 1529 
Q 2069 2156 2228 2338 
Q 2531 2678 2651 2914 
Q 2772 3150 2772 3378 
Q 2772 3750 2511 3984 
Q 2250 4219 1831 4219 
Q 1534 4219 1204 4116 
Q 875 4013 500 3803 
L 500 4441 
Q 881 4594 1212 4672 
Q 1544 4750 1819 4750 
Q 2544 4750 2975 4387 
Q 3406 4025 3406 3419 
Q 3406 3131 3298 2873 
Q 3191 2616 2906 2266 
Q 2828 2175 2409 1742 
Q 1991 1309 1228 531 
z
" transform="scale(0.015625)"/>
      <path id="DejaVuSans-42" d="M 1259 2228 
L 1259 519 
L 2272 519 
Q 2781 519 3026 730 
Q 3272 941 3272 1375 
Q 3272 1813 3026 2020 
Q 2781 2228 2272 2228 
L 1259 2228 
z
M 1259 4147 
L 1259 2741 
L 2194 2741 
Q 2656 2741 2882 2914 
Q 3109 3088 3109 3444 
Q 3109 3797 2882 3972 
Q 2656 4147 2194 4147 
L 1259 4147 
z
M 628 4666 
L 2241 4666 
Q 2963 4666 3353 4366 
Q 3744 4066 3744 3513 
Q 3744 3084 3544 2831 
Q 3344 2578 2956 2516 
Q 3422 2416 3680 2098 
Q 3938 1781 3938 1306 
Q 3938 681 3513 340 
Q 3088 0 2303 0 
L 628 0 
L 628 4666 
z
" transform="scale(0.015625)"/>
     </defs>
     <use xlink:href="#DejaVuSans-34"/>
     <use xlink:href="#DejaVuSans-4e" x="63.623047"/>
     <use xlink:href="#DejaVuSans-49" x="138.427734"/>
     <use xlink:href="#DejaVuSans-30" x="167.919922"/>
     <use xlink:href="#DejaVuSans-5f" x="231.542969"/>
     <use xlink:href="#DejaVuSans-32" x="281.542969"/>
     <use xlink:href="#DejaVuSans-20" x="345.166016"/>
     <use xlink:href="#DejaVuSans-43" x="376.953125"/>
     <use xlink:href="#DejaVuSans-68" x="446.777344"/>
     <use xlink:href="#DejaVuSans-61" x="510.15625"/>
     <use xlink:href="#DejaVuSans-69" x="571.435547"/>
     <use xlink:href="#DejaVuSans-6e" x="599.21875"/>
     <use xlink:href="#DejaVuSans-20" x="662.597656"/>
     <use xlink:href="#DejaVuSans-42" x="694.384766"/>
     <use xlink:href="#DejaVuSans-7c" x="762.988281"/>
     <use xlink:href="#DejaVuSans-48" x="796.679688"/>
     <use xlink:href="#DejaVuSans-65" x="871.875"/>
     <use xlink:href="#DejaVuSans-6d" x="933.398438"/>
     <use xlink:href="#DejaVuSans-6f" x="1030.810547"/>
     <use xlink:href="#DejaVuSans-67" x="1091.992188"/>
     <use xlink:href="#DejaVuSans-6c" x="1155.46875"/>
     <use xlink:href="#DejaVuSans-6f" x="1183.251953"/>
     <use xlink:href="#DejaVuSans-62" x="1244.433594"/>
     <use xlink:href="#DejaVuSans-69" x="1307.910156"/>
     <use xlink:href="#DejaVuSans-6e" x="1335.693359"/>
     <use xlink:href="#DejaVuSans-20" x="1399.072266"/>
     <use xlink:href="#DejaVuSans-73" x="1430.859375"/>
     <use xlink:href="#DejaVuSans-75" x="1482.958984"/>
     <use xlink:href="#DejaVuSans-62" x="1546.337891"/>
     <use xlink:href="#DejaVuSans-75" x="1609.814453"/>
     <use xlink:href="#DejaVuSans-6e" x="1673.193359"/>
     <use xlink:href="#DejaVuSans-69" x="1736.572266"/>
     <use xlink:href="#DejaVuSans-74" x="1764.355469"/>
     <use xlink:href="#DejaVuSans-20" x="1803.564453"/>
     <use xlink:href="#DejaVuSans-62" x="1835.351562"/>
     <use xlink:href="#DejaVuSans-65" x="1898.828125"/>
     <use xlink:href="#DejaVuSans-74" x="1960.351562"/>
     <use xlink:href="#DejaVuSans-61" x="1999.560547"/>
     <use xlink:href="#DejaVuSans-7c" x="2060.839844"/>
     <use xlink:href="#DejaVuSans-48" x="2094.53125"/>
     <use xlink:href="#DejaVuSans-6f" x="2169.726562"/>
     <use xlink:href="#DejaVuSans-6d" x="2230.908203"/>
     <use xlink:href="#DejaVuSans-6f" x="2328.320312"/>
     <use xlink:href="#DejaVuSans-20" x="2389.501953"/>
     <use xlink:href="#DejaVuSans-73" x="2421.289062"/>
     <use xlink:href="#DejaVuSans-61" x="2473.388672"/>
     <use xlink:href="#DejaVuSans-70" x="2534.667969"/>
     <use xlink:href="#DejaVuSans-69" x="2598.144531"/>
     <use xlink:href="#DejaVuSans-65" x="2625.927734"/>
     <use xlink:href="#DejaVuSans-6e" x="2687.451172"/>
     <use xlink:href="#DejaVuSans-73" x="2750.830078"/>
     <use xlink:href="#DejaVuSans-20" x="2802.929688"/>
     <use xlink:href="#DejaVuSans-28" x="2834.716797"/>
     <use xlink:href="#DejaVuSans-39" x="2873.730469"/>
     <use xlink:href="#DejaVuSans-36" x="2937.353516"/>
     <use xlink:href="#DejaVuSans-30" x="3000.976562"/>
     <use xlink:href="#DejaVuSans-36" x="3064.599609"/>
     <use xlink:href="#DejaVuSans-29" x="3128.222656"/>
    </g>
   </g>
   <g id="text_3">
    <!-- 3D4X_1 Chains A, C|Hemoglobin subunit alpha|Felis silvestris catus (9685) -->
    <g transform="translate(24.395294 256.759835) scale(0.1 -0.1)">
     <defs>
      <path id="DejaVuSans-33" d="M 2597 2516 
Q 3050 2419 3304 2112 
Q 3559 1806 3559 1356 
Q 3559 666 3084 287 
Q 2609 -91 1734 -91 
Q 1441 -91 1130 -33 
Q 819 25 488 141 
L 488 750 
Q 750 597 1062 519 
Q 1375 441 1716 441 
Q 2309 441 2620 675 
Q 2931 909 2931 1356 
Q 2931 1769 2642 2001 
Q 2353 2234 1838 2234 
L 1294 2234 
L 1294 2753 
L 1863 2753 
Q 2328 2753 2575 2939 
Q 2822 3125 2822 3475 
Q 2822 3834 2567 4026 
Q 2313 4219 1838 4219 
Q 1578 4219 1281 4162 
Q 984 4106 628 3988 
L 628 4550 
Q 988 4650 1302 4700 
Q 1616 4750 1894 4750 
Q 2613 4750 3031 4423 
Q 3450 4097 3450 3541 
Q 3450 3153 3228 2886 
Q 3006 2619 2597 2516 
z
" transform="scale(0.015625)"/>
      <path id="DejaVuSans-44" d="M 1259 4147 
L 1259 519 
L 2022 519 
Q 2988 519 3436 956 
Q 3884 1394 3884 2338 
Q 3884 3275 3436 3711 
Q 2988 4147 2022 4147 
L 1259 4147 
z
M 628 4666 
L 1925 4666 
Q 3281 4666 3915 4102 
Q 4550 3538 4550 2338 
Q 4550 1131 3912 565 
Q 3275 0 1925 0 
L 628 0 
L 628 4666 
z
" transform="scale(0.015625)"/>
      <path id="DejaVuSans-58" d="M 403 4666 
L 1081 4666 
L 2241 2931 
L 3406 4666 
L 4084 4666 
L 2584 2425 
L 4184 0 
L 3506 0 
L 2194 1984 
L 872 0 
L 191 0 
L 1856 2491 
L 403 4666 
z
" transform="scale(0.015625)"/>
      <path id="DejaVuSans-2c" d="M 750 794 
L 1409 794 
L 1409 256 
L 897 -744 
L 494 -744 
L 750 256 
L 750 794 
z
" transform="scale(0.015625)"/>
      <path id="DejaVuSans-46" d="M 628 4666 
L 3309 4666 
L 3309 4134 
L 1259 4134 
L 1259 2759 
L 3109 2759 
L 3109 2228 
L 1259 2228 
L 1259 0 
L 628 0 
L 628 4666 
z
" transform="scale(0.015625)"/>
      <path id="DejaVuSans-76" d="M 191 3500 
L 800 3500 
L 1894 563 
L 2988 3500 
L 3597 3500 
L 2284 0 
L 1503 0 
L 191 3500 
z
" transform="scale(0.015625)"/>
      <path id="DejaVuSans-72" d="M 2631 2963 
Q 2534 3019 2420 3045 
Q 2306 3072 2169 3072 
Q 1681 3072 1420 2755 
Q 1159 2438 1159 1844 
L 1159 0 
L 581 0 
L 581 3500 
L 1159 3500 
L 1159 2956 
Q 1341 3275 1631 3429 
Q 1922 3584 2338 3584 
Q 2397 3584 2469 3576 
Q 2541 3569 2628 3553 
L 2631 2963 
z
" transform="scale(0.015625)"/>
      <path id="DejaVuSans-63" d="M 3122 3366 
L 3122 2828 
Q 2878 2963 2633 3030 
Q 2388 3097 2138 3097 
Q 1578 3097 1268 2742 
Q 959 2388 959 1747 
Q 959 1106 1268 751 
Q 1578 397 2138 397 
Q 2388 397 2633 464 
Q 2878 531 3122 666 
L 3122 134 
Q 2881 22 2623 -34 
Q 2366 -91 2075 -91 
Q 1284 -91 818 406 
Q 353 903 353 1747 
Q 353 2603 823 3093 
Q 1294 3584 2113 3584 
Q 2378 3584 2631 3529 
Q 2884 3475 3122 3366 
z
" transform="scale(0.015625)"/>
      <path id="DejaVuSans-38" d="M 2034 2216 
Q 1584 2216 1326 1975 
Q 1069 1734 1069 1313 
Q 1069 891 1326 650 
Q 1584 409 2034 409 
Q 2484 409 2743 651 
Q 3003 894 3003 1313 
Q 3003 1734 2745 1975 
Q 2488 2216 2034 2216 
z
M 1403 2484 
Q 997 2584 770 2862 
Q 544 3141 544 3541 
Q 544 4100 942 4425 
Q 1341 4750 2034 4750 
Q 2731 4750 3128 4425 
Q 3525 4100 3525 3541 
Q 3525 3141 3298 2862 
Q 3072 2584 2669 2484 
Q 3125 2378 3379 2068 
Q 3634 1759 3634 1313 
Q 3634 634 3220 271 
Q 2806 -91 2034 -91 
Q 1263 -91 848 271 
Q 434 634 434 1313 
Q 434 1759 690 2068 
Q 947 2378 1403 2484 
z
M 1172 3481 
Q 1172 3119 1398 2916 
Q 1625 2713 2034 2713 
Q 2441 2713 2670 2916 
Q 2900 3119 2900 3481 
Q 2900 3844 2670 4047 
Q 2441 4250 2034 4250 
Q 1625 4250 1398 4047 
Q 1172 3844 1172 3481 
z
" transform="scale(0.015625)"/>
      <path id="DejaVuSans-35" d="M 691 4666 
L 3169 4666 
L 3169 4134 
L 1269 4134 
L 1269 2991 
Q 1406 3038 1543 3061 
Q 1681 3084 1819 3084 
Q 2600 3084 3056 2656 
Q 3513 2228 3513 1497 
Q 3513 744 3044 326 
Q 2575 -91 1722 -91 
Q 1428 -91 1123 -41 
Q 819 9 494 109 
L 494 744 
Q 775 591 1075 516 
Q 1375 441 1709 441 
Q 2250 441 2565 725 
Q 2881 1009 2881 1497 
Q 2881 1984 2565 2268 
Q 2250 2553 1709 2553 
Q 1456 2553 1204 2497 
Q 953 2441 691 2322 
L 691 4666 
z
" transform="scale(0.015625)"/>
     </defs>
     <use xlink:href="#DejaVuSans-33"/>
     <use xlink:href="#DejaVuSans-44" x="63.623047"/>
     <use xlink:href="#DejaVuSans-34" x="140.625"/>
     <use xlink:href="#DejaVuSans-58" x="204.248047"/>
     <use xlink:href="#DejaVuSans-5f" x="272.753906"/>
     <use xlink:href="#DejaVuSans-31" x="322.753906"/>
     <use xlink:href="#DejaVuSans-20" x="386.376953"/>
     <use xlink:href="#DejaVuSans-43" x="418.164062"/>
     <use xlink:href="#DejaVuSans-68" x="487.988281"/>
     <use xlink:href="#DejaVuSans-61" x="551.367188"/>
     <use xlink:href="#DejaVuSans-69" x="612.646484"/>
     <use xlink:href="#DejaVuSans-6e" x="640.429688"/>
     <use xlink:href="#DejaVuSans-73" x="703.808594"/>
     <use xlink:href="#DejaVuSans-20" x="755.908203"/>
     <use xlink:href="#DejaVuSans-41" x="787.695312"/>
     <use xlink:href="#DejaVuSans-2c" x="856.103516"/>
     <use xlink:href="#DejaVuSans-20" x="887.890625"/>
     <use xlink:href="#DejaVuSans-43" x="919.677734"/>
     <use xlink:href="#DejaVuSans-7c" x="989.501953"/>
     <use xlink:href="#DejaVuSans-48" x="1023.193359"/>
     <use xlink:href="#DejaVuSans-65" x="1098.388672"/>
     <use xlink:href="#DejaVuSans-6d" x="1159.912109"/>
     <use xlink:href="#DejaVuSans-6f" x="1257.324219"/>
     <use xlink:href="#DejaVuSans-67" x="1318.505859"/>
     <use xlink:href="#DejaVuSans-6c" x="1381.982422"/>
     <use xlink:href="#DejaVuSans-6f" x="1409.765625"/>
     <use xlink:href="#DejaVuSans-62" x="1470.947266"/>
     <use xlink:href="#DejaVuSans-69" x="1534.423828"/>
     <use xlink:href="#DejaVuSans-6e" x="1562.207031"/>
     <use xlink:href="#DejaVuSans-20" x="1625.585938"/>
     <use xlink:href="#DejaVuSans-73" x="1657.373047"/>
     <use xlink:href="#DejaVuSans-75" x="1709.472656"/>
     <use xlink:href="#DejaVuSans-62" x="1772.851562"/>
     <use xlink:href="#DejaVuSans-75" x="1836.328125"/>
     <use xlink:href="#DejaVuSans-6e" x="1899.707031"/>
     <use xlink:href="#DejaVuSans-69" x="1963.085938"/>
     <use xlink:href="#DejaVuSans-74" x="1990.869141"/>
     <use xlink:href="#DejaVuSans-20" x="2030.078125"/>
     <use xlink:href="#DejaVuSans-61" x="2061.865234"/>
     <use xlink:href="#DejaVuSans-6c" x="2123.144531"/>
     <use xlink:href="#DejaVuSans-70" x="2150.927734"/>
     <use xlink:href="#DejaVuSans-68" x="2214.404297"/>
     <use xlink:href="#DejaVuSans-61" x="2277.783203"/>
     <use xlink:href="#DejaVuSans-7c" x="2339.0625"/>
     <use xlink:href="#DejaVuSans-46" x="2372.753906"/>
     <use xlink:href="#DejaVuSans-65" x="2424.773438"/>
     <use xlink:href="#DejaVuSans-6c" x="2486.296875"/>
     <use xlink:href="#DejaVuSans-69" x="2514.080078"/>
     <use xlink:href="#DejaVuSans-73" x="2541.863281"/>
     <use xlink:href="#DejaVuSans-20" x="2593.962891"/>
     <use xlink:href="#DejaVuSans-73" x="2625.75"/>
     <use xlink:href="#DejaVuSans-69" x="2677.849609"/>
     <use xlink:href="#DejaVuSans-6c" x="2705.632812"/>
     <use xlink:href="#DejaVuSans-76" x="2733.416016"/>
     <use xlink:href="#DejaVuSans-65" x="2792.595703"/>
     <use xlink:href="#DejaVuSans-73" x="2854.119141"/>
     <use xlink:href="#DejaVuSans-74" x="2906.21875"/>
     <use xlink:href="#DejaVuSans-72" x="2945.427734"/>
     <use xlink:href="#DejaVuSans-69" x="2986.541016"/>
     <use xlink:href="#DejaVuSans-73" x="3014.324219"/>
     <use xlink:href="#DejaVuSans-20" x="3066.423828"/>
     <use xlink:href="#DejaVuSans-63" x="3098.210938"/>
     <use xlink:href="#DejaVuSans-61" x="3153.191406"/>
     <use xlink:href="#DejaVuSans-74" x="3214.470703"/>
     <use xlink:href="#DejaVuSans-75" x="3253.679688"/>
     <use xlink:href="#DejaVuSans-73" x="3317.058594"/>
     <use xlink:href="#DejaVuSans-20" x="3369.158203"/>
     <use xlink:href="#DejaVuSans-28" x="3400.945312"/>
     <use xlink:href="#DejaVuSans-39" x="3439.958984"/>
     <use xlink:href="#DejaVuSans-36" x="3503.582031"/>
     <use xlink:href="#DejaVuSans-38" x="3567.205078"/>
     <use xlink:href="#DejaVuSans-35" x="3630.828125"/>
     <use xlink:href="#DejaVuSans-29" x="3694.451172"/>
    </g>
   </g>
   <g id="text_4">
    <!-- 3D4X_2 Chains B, D|Hemoglobin subunit beta-A/B|Felis silvestris catus (9685) -->
    <g transform="translate(24.395294 224.232776) scale(0.1 -0.1)">
     <defs>
      <path id="DejaVuSans-2d" d="M 313 2009 
L 1997 2009 
L 1997 1497 
L 313 1497 
L 313 2009 
z
" transform="scale(0.015625)"/>
      <path id="DejaVuSans-2f" d="M 1625 4666 
L 2156 4666 
L 531 -594 
L 0 -594 
L 1625 4666 
z
" transform="scale(0.015625)"/>
     </defs>
     <use xlink:href="#DejaVuSans-33"/>
     <use xlink:href="#DejaVuSans-44" x="63.623047"/>
     <use xlink:href="#DejaVuSans-34" x="140.625"/>
     <use xlink:href="#DejaVuSans-58" x="204.248047"/>
     <use xlink:href="#DejaVuSans-5f" x="272.753906"/>
     <use xlink:href="#DejaVuSans-32" x="322.753906"/>
     <use xlink:href="#DejaVuSans-20" x="386.376953"/>
     <use xlink:href="#DejaVuSans-43" x="418.164062"/>
     <use xlink:href="#DejaVuSans-68" x="487.988281"/>
     <use xlink:href="#DejaVuSans-61" x="551.367188"/>
     <use xlink:href="#DejaVuSans-69" x="612.646484"/>
     <use xlink:href="#DejaVuSans-6e" x="640.429688"/>
     <use xlink:href="#DejaVuSans-73" x="703.808594"/>
     <use xlink:href="#DejaVuSans-20" x="755.908203"/>
     <use xlink:href="#DejaVuSans-42" x="787.695312"/>
     <use xlink:href="#DejaVuSans-2c" x="856.298828"/>
     <use xlink:href="#DejaVuSans-20" x="888.085938"/>
     <use xlink:href="#DejaVuSans-44" x="919.873047"/>
     <use xlink:href="#DejaVuSans-7c" x="996.875"/>
     <use xlink:href="#DejaVuSans-48" x="1030.566406"/>
     <use xlink:href="#DejaVuSans-65" x="1105.761719"/>
     <use xlink:href="#DejaVuSans-6d" x="1167.285156"/>
     <use xlink:href="#DejaVuSans-6f" x="1264.697266"/>
     <use xlink:href="#DejaVuSans-67" x="1325.878906"/>
     <use xlink:href="#DejaVuSans-6c" x="1389.355469"/>
     <use xlink:href="#DejaVuSans-6f" x="1417.138672"/>
     <use xlink:href="#DejaVuSans-62" x="1478.320312"/>
     <use xlink:href="#DejaVuSans-69" x="1541.796875"/>
     <use xlink:href="#DejaVuSans-6e" x="1569.580078"/>
     <use xlink:href="#DejaVuSans-20" x="1632.958984"/>
     <use xlink:href="#DejaVuSans-73" x="1664.746094"/>
     <use xlink:href="#DejaVuSans-75" x="1716.845703"/>
     <use xlink:href="#DejaVuSans-62" x="1780.224609"/>
     <use xlink:href="#DejaVuSans-75" x="1843.701172"/>
     <use xlink:href="#DejaVuSans-6e" x="1907.080078"/>
     <use xlink:href="#DejaVuSans-69" x="1970.458984"/>
     <use xlink:href="#DejaVuSans-74" x="1998.242188"/>
     <use xlink:href="#DejaVuSans-20" x="2037.451172"/>
     <use xlink:href="#DejaVuSans-62" x="2069.238281"/>
     <use xlink:href="#DejaVuSans-65" x="2132.714844"/>
     <use xlink:href="#DejaVuSans-74" x="2194.238281"/>
     <use xlink:href="#DejaVuSans-61" x="2233.447266"/>
     <use xlink:href="#DejaVuSans-2d" x="2294.726562"/>
     <use xlink:href="#DejaVuSans-41" x="2328.560547"/>
     <use xlink:href="#DejaVuSans-2f" x="2396.96875"/>
     <use xlink:href="#DejaVuSans-42" x="2430.660156"/>
     <use xlink:href="#DejaVuSans-7c" x="2499.263672"/>
     <use xlink:href="#DejaVuSans-46" x="2532.955078"/>
     <use xlink:href="#DejaVuSans-65" x="2584.974609"/>
     <use xlink:href="#DejaVuSans-6c" x="2646.498047"/>
     <use xlink:href="#DejaVuSans-69" x="2674.28125"/>
     <use xlink:href="#DejaVuSans-73" x="2702.064453"/>
     <use xlink:href="#DejaVuSans-20" x="2754.164062"/>
     <use xlink:href="#DejaVuSans-73" x="2785.951172"/>
     <use xlink:href="#DejaVuSans-69" x="2838.050781"/>
     <use xlink:href="#DejaVuSans-6c" x="2865.833984"/>
     <use xlink:href="#DejaVuSans-76" x="2893.617188"/>
     <use xlink:href="#DejaVuSans-65" x="2952.796875"/>
     <use xlink:href="#DejaVuSans-73" x="3014.320312"/>
     <use xlink:href="#DejaVuSans-74" x="3066.419922"/>
     <use xlink:href="#DejaVuSans-72" x="3105.628906"/>
     <use xlink:href="#DejaVuSans-69" x="3146.742188"/>
     <use xlink:href="#DejaVuSans-73" x="3174.525391"/>
     <use xlink:href="#DejaVuSans-20" x="3226.625"/>
     <use xlink:href="#DejaVuSans-63" x="3258.412109"/>
     <use xlink:href="#DejaVuSans-61" x="3313.392578"/>
     <use xlink:href="#DejaVuSans-74" x="3374.671875"/>
     <use xlink:href="#DejaVuSans-75" x="3413.880859"/>
     <use xlink:href="#DejaVuSans-73" x="3477.259766"/>
     <use xlink:href="#DejaVuSans-20" x="3529.359375"/>
     <use xlink:href="#DejaVuSans-28" x="3561.146484"/>
     <use xlink:href="#DejaVuSans-39" x="3600.160156"/>
     <use xlink:href="#DejaVuSans-36" x="3663.783203"/>
     <use xlink:href="#DejaVuSans-38" x="3727.40625"/>
     <use xlink:href="#DejaVuSans-35" x="3791.029297"/>
     <use xlink:href="#DejaVuSans-29" x="3854.652344"/>
    </g>
   </g>
   <g id="text_5">
    <!-- 3PEL_1 Chain A|Hemoglobin subunit alpha|Canis lupus familiaris (9615) -->
    <g transform="translate(24.395294 191.705717) scale(0.1 -0.1)">
     <defs>
      <path id="DejaVuSans-50" d="M 1259 4147 
L 1259 2394 
L 2053 2394 
Q 2494 2394 2734 2622 
Q 2975 2850 2975 3272 
Q 2975 3691 2734 3919 
Q 2494 4147 2053 4147 
L 1259 4147 
z
M 628 4666 
L 2053 4666 
Q 2838 4666 3239 4311 
Q 3641 3956 3641 3272 
Q 3641 2581 3239 2228 
Q 2838 1875 2053 1875 
L 1259 1875 
L 1259 0 
L 628 0 
L 628 4666 
z
" transform="scale(0.015625)"/>
      <path id="DejaVuSans-45" d="M 628 4666 
L 3578 4666 
L 3578 4134 
L 1259 4134 
L 1259 2753 
L 3481 2753 
L 3481 2222 
L 1259 2222 
L 1259 531 
L 3634 531 
L 3634 0 
L 628 0 
L 628 4666 
z
" transform="scale(0.015625)"/>
      <path id="DejaVuSans-4c" d="M 628 4666 
L 1259 4666 
L 1259 531 
L 3531 531 
L 3531 0 
L 628 0 
L 628 4666 
z
" transform="scale(0.015625)"/>
      <path id="DejaVuSans-66" d="M 2375 4863 
L 2375 4384 
L 1825 4384 
Q 1516 4384 1395 4259 
Q 1275 4134 1275 3809 
L 1275 3500 
L 2222 3500 
L 2222 3053 
L 1275 3053 
L 1275 0 
L 697 0 
L 697 3053 
L 147 3053 
L 147 3500 
L 697 3500 
L 697 3744 
Q 697 4328 969 4595 
Q 1241 4863 1831 4863 
L 2375 4863 
z
" transform="scale(0.015625)"/>
     </defs>
     <use xlink:href="#DejaVuSans-33"/>
     <use xlink:href="#DejaVuSans-50" x="63.623047"/>
     <use xlink:href="#DejaVuSans-45" x="123.925781"/>
     <use xlink:href="#DejaVuSans-4c" x="187.109375"/>
     <use xlink:href="#DejaVuSans-5f" x="242.822266"/>
     <use xlink:href="#DejaVuSans-31" x="292.822266"/>
     <use xlink:href="#DejaVuSans-20" x="356.445312"/>
     <use xlink:href="#DejaVuSans-43" x="388.232422"/>
     <use xlink:href="#DejaVuSans-68" x="458.056641"/>
     <use xlink:href="#DejaVuSans-61" x="521.435547"/>
     <use xlink:href="#DejaVuSans-69" x="582.714844"/>
     <use xlink:href="#DejaVuSans-6e" x="610.498047"/>
     <use xlink:href="#DejaVuSans-20" x="673.876953"/>
     <use xlink:href="#DejaVuSans-41" x="705.664062"/>
     <use xlink:href="#DejaVuSans-7c" x="774.072266"/>
     <use xlink:href="#DejaVuSans-48" x="807.763672"/>
     <use xlink:href="#DejaVuSans-65" x="882.958984"/>
     <use xlink:href="#DejaVuSans-6d" x="944.482422"/>
     <use xlink:href="#DejaVuSans-6f" x="1041.894531"/>
     <use xlink:href="#DejaVuSans-67" x="1103.076172"/>
     <use xlink:href="#DejaVuSans-6c" x="1166.552734"/>
     <use xlink:href="#DejaVuSans-6f" x="1194.335938"/>
     <use xlink:href="#DejaVuSans-62" x="1255.517578"/>
     <use xlink:href="#DejaVuSans-69" x="1318.994141"/>
     <use xlink:href="#DejaVuSans-6e" x="1346.777344"/>
     <use xlink:href="#DejaVuSans-20" x="1410.15625"/>
     <use xlink:href="#DejaVuSans-73" x="1441.943359"/>
     <use xlink:href="#DejaVuSans-75" x="1494.042969"/>
     <use xlink:href="#DejaVuSans-62" x="1557.421875"/>
     <use xlink:href="#DejaVuSans-75" x="1620.898438"/>
     <use xlink:href="#DejaVuSans-6e" x="1684.277344"/>
     <use xlink:href="#DejaVuSans-69" x="1747.65625"/>
     <use xlink:href="#DejaVuSans-74" x="1775.439453"/>
     <use xlink:href="#DejaVuSans-20" x="1814.648438"/>
     <use xlink:href="#DejaVuSans-61" x="1846.435547"/>
     <use xlink:href="#DejaVuSans-6c" x="1907.714844"/>
     <use xlink:href="#DejaVuSans-70" x="1935.498047"/>
     <use xlink:href="#DejaVuSans-68" x="1998.974609"/>
     <use xlink:href="#DejaVuSans-61" x="2062.353516"/>
     <use xlink:href="#DejaVuSans-7c" x="2123.632812"/>
     <use xlink:href="#DejaVuSans-43" x="2157.324219"/>
     <use xlink:href="#DejaVuSans-61" x="2227.148438"/>
     <use xlink:href="#DejaVuSans-6e" x="2288.427734"/>
     <use xlink:href="#DejaVuSans-69" x="2351.806641"/>
     <use xlink:href="#DejaVuSans-73" x="2379.589844"/>
     <use xlink:href="#DejaVuSans-20" x="2431.689453"/>
     <use xlink:href="#DejaVuSans-6c" x="2463.476562"/>
     <use xlink:href="#DejaVuSans-75" x="2491.259766"/>
     <use xlink:href="#DejaVuSans-70" x="2554.638672"/>
     <use xlink:href="#DejaVuSans-75" x="2618.115234"/>
     <use xlink:href="#DejaVuSans-73" x="2681.494141"/>
     <use xlink:href="#DejaVuSans-20" x="2733.59375"/>
     <use xlink:href="#DejaVuSans-66" x="2765.380859"/>
     <use xlink:href="#DejaVuSans-61" x="2800.585938"/>
     <use xlink:href="#DejaVuSans-6d" x="2861.865234"/>
     <use xlink:href="#DejaVuSans-69" x="2959.277344"/>
     <use xlink:href="#DejaVuSans-6c" x="2987.060547"/>
     <use xlink:href="#DejaVuSans-69" x="3014.84375"/>
     <use xlink:href="#DejaVuSans-61" x="3042.626953"/>
     <use xlink:href="#DejaVuSans-72" x="3103.90625"/>
     <use xlink:href="#DejaVuSans-69" x="3145.019531"/>
     <use xlink:href="#DejaVuSans-73" x="3172.802734"/>
     <use xlink:href="#DejaVuSans-20" x="3224.902344"/>
     <use xlink:href="#DejaVuSans-28" x="3256.689453"/>
     <use xlink:href="#DejaVuSans-39" x="3295.703125"/>
     <use xlink:href="#DejaVuSans-36" x="3359.326172"/>
     <use xlink:href="#DejaVuSans-31" x="3422.949219"/>
     <use xlink:href="#DejaVuSans-35" x="3486.572266"/>
     <use xlink:href="#DejaVuSans-29" x="3550.195312"/>
    </g>
   </g>
   <g id="text_6">
    <!-- 3PEL_2 Chain B|Hemoglobin subunit beta|Canis lupus familiaris (9615) -->
    <g transform="translate(24.395294 159.178658) scale(0.1 -0.1)">
     <use xlink:href="#DejaVuSans-33"/>
     <use xlink:href="#DejaVuSans-50" x="63.623047"/>
     <use xlink:href="#DejaVuSans-45" x="123.925781"/>
     <use xlink:href="#DejaVuSans-4c" x="187.109375"/>
     <use xlink:href="#DejaVuSans-5f" x="242.822266"/>
     <use xlink:href="#DejaVuSans-32" x="292.822266"/>
     <use xlink:href="#DejaVuSans-20" x="356.445312"/>
     <use xlink:href="#DejaVuSans-43" x="388.232422"/>
     <use xlink:href="#DejaVuSans-68" x="458.056641"/>
     <use xlink:href="#DejaVuSans-61" x="521.435547"/>
     <use xlink:href="#DejaVuSans-69" x="582.714844"/>
     <use xlink:href="#DejaVuSans-6e" x="610.498047"/>
     <use xlink:href="#DejaVuSans-20" x="673.876953"/>
     <use xlink:href="#DejaVuSans-42" x="705.664062"/>
     <use xlink:href="#DejaVuSans-7c" x="774.267578"/>
     <use xlink:href="#DejaVuSans-48" x="807.958984"/>
     <use xlink:href="#DejaVuSans-65" x="883.154297"/>
     <use xlink:href="#DejaVuSans-6d" x="944.677734"/>
     <use xlink:href="#DejaVuSans-6f" x="1042.089844"/>
     <use xlink:href="#DejaVuSans-67" x="1103.271484"/>
     <use xlink:href="#DejaVuSans-6c" x="1166.748047"/>
     <use xlink:href="#DejaVuSans-6f" x="1194.53125"/>
     <use xlink:href="#DejaVuSans-62" x="1255.712891"/>
     <use xlink:href="#DejaVuSans-69" x="1319.189453"/>
     <use xlink:href="#DejaVuSans-6e" x="1346.972656"/>
     <use xlink:href="#DejaVuSans-20" x="1410.351562"/>
     <use xlink:href="#DejaVuSans-73" x="1442.138672"/>
     <use xlink:href="#DejaVuSans-75" x="1494.238281"/>
     <use xlink:href="#DejaVuSans-62" x="1557.617188"/>
     <use xlink:href="#DejaVuSans-75" x="1621.09375"/>
     <use xlink:href="#DejaVuSans-6e" x="1684.472656"/>
     <use xlink:href="#DejaVuSans-69" x="1747.851562"/>
     <use xlink:href="#DejaVuSans-74" x="1775.634766"/>
     <use xlink:href="#DejaVuSans-20" x="1814.84375"/>
     <use xlink:href="#DejaVuSans-62" x="1846.630859"/>
     <use xlink:href="#DejaVuSans-65" x="1910.107422"/>
     <use xlink:href="#DejaVuSans-74" x="1971.630859"/>
     <use xlink:href="#DejaVuSans-61" x="2010.839844"/>
     <use xlink:href="#DejaVuSans-7c" x="2072.119141"/>
     <use xlink:href="#DejaVuSans-43" x="2105.810547"/>
     <use xlink:href="#DejaVuSans-61" x="2175.634766"/>
     <use xlink:href="#DejaVuSans-6e" x="2236.914062"/>
     <use xlink:href="#DejaVuSans-69" x="2300.292969"/>
     <use xlink:href="#DejaVuSans-73" x="2328.076172"/>
     <use xlink:href="#DejaVuSans-20" x="2380.175781"/>
     <use xlink:href="#DejaVuSans-6c" x="2411.962891"/>
     <use xlink:href="#DejaVuSans-75" x="2439.746094"/>
     <use xlink:href="#DejaVuSans-70" x="2503.125"/>
     <use xlink:href="#DejaVuSans-75" x="2566.601562"/>
     <use xlink:href="#DejaVuSans-73" x="2629.980469"/>
     <use xlink:href="#DejaVuSans-20" x="2682.080078"/>
     <use xlink:href="#DejaVuSans-66" x="2713.867188"/>
     <use xlink:href="#DejaVuSans-61" x="2749.072266"/>
     <use xlink:href="#DejaVuSans-6d" x="2810.351562"/>
     <use xlink:href="#DejaVuSans-69" x="2907.763672"/>
     <use xlink:href="#DejaVuSans-6c" x="2935.546875"/>
     <use xlink:href="#DejaVuSans-69" x="2963.330078"/>
     <use xlink:href="#DejaVuSans-61" x="2991.113281"/>
     <use xlink:href="#DejaVuSans-72" x="3052.392578"/>
     <use xlink:href="#DejaVuSans-69" x="3093.505859"/>
     <use xlink:href="#DejaVuSans-73" x="3121.289062"/>
     <use xlink:href="#DejaVuSans-20" x="3173.388672"/>
     <use xlink:href="#DejaVuSans-28" x="3205.175781"/>
     <use xlink:href="#DejaVuSans-39" x="3244.189453"/>
     <use xlink:href="#DejaVuSans-36" x="3307.8125"/>
     <use xlink:href="#DejaVuSans-31" x="3371.435547"/>
     <use xlink:href="#DejaVuSans-35" x="3435.058594"/>
     <use xlink:href="#DejaVuSans-29" x="3498.681641"/>
    </g>
   </g>
   <g id="text_7">
    <!-- 1SHR_1 Chains A, C|Hemoglobin alpha chain|Homo sapiens (9606) -->
    <g transform="translate(24.395294 126.651599) scale(0.1 -0.1)">
     <defs>
      <path id="DejaVuSans-53" d="M 3425 4513 
L 3425 3897 
Q 3066 4069 2747 4153 
Q 2428 4238 2131 4238 
Q 1616 4238 1336 4038 
Q 1056 3838 1056 3469 
Q 1056 3159 1242 3001 
Q 1428 2844 1947 2747 
L 2328 2669 
Q 3034 2534 3370 2195 
Q 3706 1856 3706 1288 
Q 3706 609 3251 259 
Q 2797 -91 1919 -91 
Q 1588 -91 1214 -16 
Q 841 59 441 206 
L 441 856 
Q 825 641 1194 531 
Q 1563 422 1919 422 
Q 2459 422 2753 634 
Q 3047 847 3047 1241 
Q 3047 1584 2836 1778 
Q 2625 1972 2144 2069 
L 1759 2144 
Q 1053 2284 737 2584 
Q 422 2884 422 3419 
Q 422 4038 858 4394 
Q 1294 4750 2059 4750 
Q 2388 4750 2728 4690 
Q 3069 4631 3425 4513 
z
" transform="scale(0.015625)"/>
      <path id="DejaVuSans-52" d="M 2841 2188 
Q 3044 2119 3236 1894 
Q 3428 1669 3622 1275 
L 4263 0 
L 3584 0 
L 2988 1197 
Q 2756 1666 2539 1819 
Q 2322 1972 1947 1972 
L 1259 1972 
L 1259 0 
L 628 0 
L 628 4666 
L 2053 4666 
Q 2853 4666 3247 4331 
Q 3641 3997 3641 3322 
Q 3641 2881 3436 2590 
Q 3231 2300 2841 2188 
z
M 1259 4147 
L 1259 2491 
L 2053 2491 
Q 2509 2491 2742 2702 
Q 2975 2913 2975 3322 
Q 2975 3731 2742 3939 
Q 2509 4147 2053 4147 
L 1259 4147 
z
" transform="scale(0.015625)"/>
     </defs>
     <use xlink:href="#DejaVuSans-31"/>
     <use xlink:href="#DejaVuSans-53" x="63.623047"/>
     <use xlink:href="#DejaVuSans-48" x="127.099609"/>
     <use xlink:href="#DejaVuSans-52" x="202.294922"/>
     <use xlink:href="#DejaVuSans-5f" x="271.777344"/>
     <use xlink:href="#DejaVuSans-31" x="321.777344"/>
     <use xlink:href="#DejaVuSans-20" x="385.400391"/>
     <use xlink:href="#DejaVuSans-43" x="417.1875"/>
     <use xlink:href="#DejaVuSans-68" x="487.011719"/>
     <use xlink:href="#DejaVuSans-61" x="550.390625"/>
     <use xlink:href="#DejaVuSans-69" x="611.669922"/>
     <use xlink:href="#DejaVuSans-6e" x="639.453125"/>
     <use xlink:href="#DejaVuSans-73" x="702.832031"/>
     <use xlink:href="#DejaVuSans-20" x="754.931641"/>
     <use xlink:href="#DejaVuSans-41" x="786.71875"/>
     <use xlink:href="#DejaVuSans-2c" x="855.126953"/>
     <use xlink:href="#DejaVuSans-20" x="886.914062"/>
     <use xlink:href="#DejaVuSans-43" x="918.701172"/>
     <use xlink:href="#DejaVuSans-7c" x="988.525391"/>
     <use xlink:href="#DejaVuSans-48" x="1022.216797"/>
     <use xlink:href="#DejaVuSans-65" x="1097.412109"/>
     <use xlink:href="#DejaVuSans-6d" x="1158.935547"/>
     <use xlink:href="#DejaVuSans-6f" x="1256.347656"/>
     <use xlink:href="#DejaVuSans-67" x="1317.529297"/>
     <use xlink:href="#DejaVuSans-6c" x="1381.005859"/>
     <use xlink:href="#DejaVuSans-6f" x="1408.789062"/>
     <use xlink:href="#DejaVuSans-62" x="1469.970703"/>
     <use xlink:href="#DejaVuSans-69" x="1533.447266"/>
     <use xlink:href="#DejaVuSans-6e" x="1561.230469"/>
     <use xlink:href="#DejaVuSans-20" x="1624.609375"/>
     <use xlink:href="#DejaVuSans-61" x="1656.396484"/>
     <use xlink:href="#DejaVuSans-6c" x="1717.675781"/>
     <use xlink:href="#DejaVuSans-70" x="1745.458984"/>
     <use xlink:href="#DejaVuSans-68" x="1808.935547"/>
     <use xlink:href="#DejaVuSans-61" x="1872.314453"/>
     <use xlink:href="#DejaVuSans-20" x="1933.59375"/>
     <use xlink:href="#DejaVuSans-63" x="1965.380859"/>
     <use xlink:href="#DejaVuSans-68" x="2020.361328"/>
     <use xlink:href="#DejaVuSans-61" x="2083.740234"/>
     <use xlink:href="#DejaVuSans-69" x="2145.019531"/>
     <use xlink:href="#DejaVuSans-6e" x="2172.802734"/>
     <use xlink:href="#DejaVuSans-7c" x="2236.181641"/>
     <use xlink:href="#DejaVuSans-48" x="2269.873047"/>
     <use xlink:href="#DejaVuSans-6f" x="2345.068359"/>
     <use xlink:href="#DejaVuSans-6d" x="2406.25"/>
     <use xlink:href="#DejaVuSans-6f" x="2503.662109"/>
     <use xlink:href="#DejaVuSans-20" x="2564.84375"/>
     <use xlink:href="#DejaVuSans-73" x="2596.630859"/>
     <use xlink:href="#DejaVuSans-61" x="2648.730469"/>
     <use xlink:href="#DejaVuSans-70" x="2710.009766"/>
     <use xlink:href="#DejaVuSans-69" x="2773.486328"/>
     <use xlink:href="#DejaVuSans-65" x="2801.269531"/>
     <use xlink:href="#DejaVuSans-6e" x="2862.792969"/>
     <use xlink:href="#DejaVuSans-73" x="2926.171875"/>
     <use xlink:href="#DejaVuSans-20" x="2978.271484"/>
     <use xlink:href="#DejaVuSans-28" x="3010.058594"/>
     <use xlink:href="#DejaVuSans-39" x="3049.072266"/>
     <use xlink:href="#DejaVuSans-36" x="3112.695312"/>
     <use xlink:href="#DejaVuSans-30" x="3176.318359"/>
     <use xlink:href="#DejaVuSans-36" x="3239.941406"/>
     <use xlink:href="#DejaVuSans-29" x="3303.564453"/>
    </g>
   </g>
   <g id="text_8">
    <!-- 1SHR_2 Chains B, D|Hemoglobin delta chain|Homo sapiens (9606) -->
    <g transform="translate(24.395294 94.12454) scale(0.1 -0.1)">
     <defs>
      <path id="DejaVuSans-64" d="M 2906 2969 
L 2906 4863 
L 3481 4863 
L 3481 0 
L 2906 0 
L 2906 525 
Q 2725 213 2448 61 
Q 2172 -91 1784 -91 
Q 1150 -91 751 415 
Q 353 922 353 1747 
Q 353 2572 751 3078 
Q 1150 3584 1784 3584 
Q 2172 3584 2448 3432 
Q 2725 3281 2906 2969 
z
M 947 1747 
Q 947 1113 1208 752 
Q 1469 391 1925 391 
Q 2381 391 2643 752 
Q 2906 1113 2906 1747 
Q 2906 2381 2643 2742 
Q 2381 3103 1925 3103 
Q 1469 3103 1208 2742 
Q 947 2381 947 1747 
z
" transform="scale(0.015625)"/>
     </defs>
     <use xlink:href="#DejaVuSans-31"/>
     <use xlink:href="#DejaVuSans-53" x="63.623047"/>
     <use xlink:href="#DejaVuSans-48" x="127.099609"/>
     <use xlink:href="#DejaVuSans-52" x="202.294922"/>
     <use xlink:href="#DejaVuSans-5f" x="271.777344"/>
     <use xlink:href="#DejaVuSans-32" x="321.777344"/>
     <use xlink:href="#DejaVuSans-20" x="385.400391"/>
     <use xlink:href="#DejaVuSans-43" x="417.1875"/>
     <use xlink:href="#DejaVuSans-68" x="487.011719"/>
     <use xlink:href="#DejaVuSans-61" x="550.390625"/>
     <use xlink:href="#DejaVuSans-69" x="611.669922"/>
     <use xlink:href="#DejaVuSans-6e" x="639.453125"/>
     <use xlink:href="#DejaVuSans-73" x="702.832031"/>
     <use xlink:href="#DejaVuSans-20" x="754.931641"/>
     <use xlink:href="#DejaVuSans-42" x="786.71875"/>
     <use xlink:href="#DejaVuSans-2c" x="855.322266"/>
     <use xlink:href="#DejaVuSans-20" x="887.109375"/>
     <use xlink:href="#DejaVuSans-44" x="918.896484"/>
     <use xlink:href="#DejaVuSans-7c" x="995.898438"/>
     <use xlink:href="#DejaVuSans-48" x="1029.589844"/>
     <use xlink:href="#DejaVuSans-65" x="1104.785156"/>
     <use xlink:href="#DejaVuSans-6d" x="1166.308594"/>
     <use xlink:href="#DejaVuSans-6f" x="1263.720703"/>
     <use xlink:href="#DejaVuSans-67" x="1324.902344"/>
     <use xlink:href="#DejaVuSans-6c" x="1388.378906"/>
     <use xlink:href="#DejaVuSans-6f" x="1416.162109"/>
     <use xlink:href="#DejaVuSans-62" x="1477.34375"/>
     <use xlink:href="#DejaVuSans-69" x="1540.820312"/>
     <use xlink:href="#DejaVuSans-6e" x="1568.603516"/>
     <use xlink:href="#DejaVuSans-20" x="1631.982422"/>
     <use xlink:href="#DejaVuSans-64" x="1663.769531"/>
     <use xlink:href="#DejaVuSans-65" x="1727.246094"/>
     <use xlink:href="#DejaVuSans-6c" x="1788.769531"/>
     <use xlink:href="#DejaVuSans-74" x="1816.552734"/>
     <use xlink:href="#DejaVuSans-61" x="1855.761719"/>
     <use xlink:href="#DejaVuSans-20" x="1917.041016"/>
     <use xlink:href="#DejaVuSans-63" x="1948.828125"/>
     <use xlink:href="#DejaVuSans-68" x="2003.808594"/>
     <use xlink:href="#DejaVuSans-61" x="2067.1875"/>
     <use xlink:href="#DejaVuSans-69" x="2128.466797"/>
     <use xlink:href="#DejaVuSans-6e" x="2156.25"/>
     <use xlink:href="#DejaVuSans-7c" x="2219.628906"/>
     <use xlink:href="#DejaVuSans-48" x="2253.320312"/>
     <use xlink:href="#DejaVuSans-6f" x="2328.515625"/>
     <use xlink:href="#DejaVuSans-6d" x="2389.697266"/>
     <use xlink:href="#DejaVuSans-6f" x="2487.109375"/>
     <use xlink:href="#DejaVuSans-20" x="2548.291016"/>
     <use xlink:href="#DejaVuSans-73" x="2580.078125"/>
     <use xlink:href="#DejaVuSans-61" x="2632.177734"/>
     <use xlink:href="#DejaVuSans-70" x="2693.457031"/>
     <use xlink:href="#DejaVuSans-69" x="2756.933594"/>
     <use xlink:href="#DejaVuSans-65" x="2784.716797"/>
     <use xlink:href="#DejaVuSans-6e" x="2846.240234"/>
     <use xlink:href="#DejaVuSans-73" x="2909.619141"/>
     <use xlink:href="#DejaVuSans-20" x="2961.71875"/>
     <use xlink:href="#DejaVuSans-28" x="2993.505859"/>
     <use xlink:href="#DejaVuSans-39" x="3032.519531"/>
     <use xlink:href="#DejaVuSans-36" x="3096.142578"/>
     <use xlink:href="#DejaVuSans-30" x="3159.765625"/>
     <use xlink:href="#DejaVuSans-36" x="3223.388672"/>
     <use xlink:href="#DejaVuSans-29" x="3287.011719"/>
    </g>
   </g>
   <g id="text_9">
    <!-- 1HV4_1 Chains A, C, E, G|HEMOGLOBIN ALPHA-A CHAIN|Anser indicus (8846) -->
    <g transform="translate(24.395294 61.597482) scale(0.1 -0.1)">
     <defs>
      <path id="DejaVuSans-56" d="M 1831 0 
L 50 4666 
L 709 4666 
L 2188 738 
L 3669 4666 
L 4325 4666 
L 2547 0 
L 1831 0 
z
" transform="scale(0.015625)"/>
      <path id="DejaVuSans-47" d="M 3809 666 
L 3809 1919 
L 2778 1919 
L 2778 2438 
L 4434 2438 
L 4434 434 
Q 4069 175 3628 42 
Q 3188 -91 2688 -91 
Q 1594 -91 976 548 
Q 359 1188 359 2328 
Q 359 3472 976 4111 
Q 1594 4750 2688 4750 
Q 3144 4750 3555 4637 
Q 3966 4525 4313 4306 
L 4313 3634 
Q 3963 3931 3569 4081 
Q 3175 4231 2741 4231 
Q 1884 4231 1454 3753 
Q 1025 3275 1025 2328 
Q 1025 1384 1454 906 
Q 1884 428 2741 428 
Q 3075 428 3337 486 
Q 3600 544 3809 666 
z
" transform="scale(0.015625)"/>
      <path id="DejaVuSans-4d" d="M 628 4666 
L 1569 4666 
L 2759 1491 
L 3956 4666 
L 4897 4666 
L 4897 0 
L 4281 0 
L 4281 4097 
L 3078 897 
L 2444 897 
L 1241 4097 
L 1241 0 
L 628 0 
L 628 4666 
z
" transform="scale(0.015625)"/>
      <path id="DejaVuSans-4f" d="M 2522 4238 
Q 1834 4238 1429 3725 
Q 1025 3213 1025 2328 
Q 1025 1447 1429 934 
Q 1834 422 2522 422 
Q 3209 422 3611 934 
Q 4013 1447 4013 2328 
Q 4013 3213 3611 3725 
Q 3209 4238 2522 4238 
z
M 2522 4750 
Q 3503 4750 4090 4092 
Q 4678 3434 4678 2328 
Q 4678 1225 4090 567 
Q 3503 -91 2522 -91 
Q 1538 -91 948 565 
Q 359 1222 359 2328 
Q 359 3434 948 4092 
Q 1538 4750 2522 4750 
z
" transform="scale(0.015625)"/>
     </defs>
     <use xlink:href="#DejaVuSans-31"/>
     <use xlink:href="#DejaVuSans-48" x="63.623047"/>
     <use xlink:href="#DejaVuSans-56" x="138.818359"/>
     <use xlink:href="#DejaVuSans-34" x="207.226562"/>
     <use xlink:href="#DejaVuSans-5f" x="270.849609"/>
     <use xlink:href="#DejaVuSans-31" x="320.849609"/>
     <use xlink:href="#DejaVuSans-20" x="384.472656"/>
     <use xlink:href="#DejaVuSans-43" x="416.259766"/>
     <use xlink:href="#DejaVuSans-68" x="486.083984"/>
     <use xlink:href="#DejaVuSans-61" x="549.462891"/>
     <use xlink:href="#DejaVuSans-69" x="610.742188"/>
     <use xlink:href="#DejaVuSans-6e" x="638.525391"/>
     <use xlink:href="#DejaVuSans-73" x="701.904297"/>
     <use xlink:href="#DejaVuSans-20" x="754.003906"/>
     <use xlink:href="#DejaVuSans-41" x="785.791016"/>
     <use xlink:href="#DejaVuSans-2c" x="854.199219"/>
     <use xlink:href="#DejaVuSans-20" x="885.986328"/>
     <use xlink:href="#DejaVuSans-43" x="917.773438"/>
     <use xlink:href="#DejaVuSans-2c" x="987.597656"/>
     <use xlink:href="#DejaVuSans-20" x="1019.384766"/>
     <use xlink:href="#DejaVuSans-45" x="1051.171875"/>
     <use xlink:href="#DejaVuSans-2c" x="1114.355469"/>
     <use xlink:href="#DejaVuSans-20" x="1146.142578"/>
     <use xlink:href="#DejaVuSans-47" x="1177.929688"/>
     <use xlink:href="#DejaVuSans-7c" x="1255.419922"/>
     <use xlink:href="#DejaVuSans-48" x="1289.111328"/>
     <use xlink:href="#DejaVuSans-45" x="1364.306641"/>
     <use xlink:href="#DejaVuSans-4d" x="1427.490234"/>
     <use xlink:href="#DejaVuSans-4f" x="1513.769531"/>
     <use xlink:href="#DejaVuSans-47" x="1592.480469"/>
     <use xlink:href="#DejaVuSans-4c" x="1669.970703"/>
     <use xlink:href="#DejaVuSans-4f" x="1722.058594"/>
     <use xlink:href="#DejaVuSans-42" x="1800.769531"/>
     <use xlink:href="#DejaVuSans-49" x="1869.373047"/>
     <use xlink:href="#DejaVuSans-4e" x="1898.865234"/>
     <use xlink:href="#DejaVuSans-20" x="1973.669922"/>
     <use xlink:href="#DejaVuSans-41" x="2005.457031"/>
     <use xlink:href="#DejaVuSans-4c" x="2073.865234"/>
     <use xlink:href="#DejaVuSans-50" x="2129.578125"/>
     <use xlink:href="#DejaVuSans-48" x="2189.880859"/>
     <use xlink:href="#DejaVuSans-41" x="2265.076172"/>
     <use xlink:href="#DejaVuSans-2d" x="2331.234375"/>
     <use xlink:href="#DejaVuSans-41" x="2365.068359"/>
     <use xlink:href="#DejaVuSans-20" x="2433.476562"/>
     <use xlink:href="#DejaVuSans-43" x="2465.263672"/>
     <use xlink:href="#DejaVuSans-48" x="2535.087891"/>
     <use xlink:href="#DejaVuSans-41" x="2610.283203"/>
     <use xlink:href="#DejaVuSans-49" x="2678.691406"/>
     <use xlink:href="#DejaVuSans-4e" x="2708.183594"/>
     <use xlink:href="#DejaVuSans-7c" x="2782.988281"/>
     <use xlink:href="#DejaVuSans-41" x="2816.679688"/>
     <use xlink:href="#DejaVuSans-6e" x="2885.087891"/>
     <use xlink:href="#DejaVuSans-73" x="2948.466797"/>
     <use xlink:href="#DejaVuSans-65" x="3000.566406"/>
     <use xlink:href="#DejaVuSans-72" x="3062.089844"/>
     <use xlink:href="#DejaVuSans-20" x="3103.203125"/>
     <use xlink:href="#DejaVuSans-69" x="3134.990234"/>
     <use xlink:href="#DejaVuSans-6e" x="3162.773438"/>
     <use xlink:href="#DejaVuSans-64" x="3226.152344"/>
     <use xlink:href="#DejaVuSans-69" x="3289.628906"/>
     <use xlink:href="#DejaVuSans-63" x="3317.412109"/>
     <use xlink:href="#DejaVuSans-75" x="3372.392578"/>
     <use xlink:href="#DejaVuSans-73" x="3435.771484"/>
     <use xlink:href="#DejaVuSans-20" x="3487.871094"/>
     <use xlink:href="#DejaVuSans-28" x="3519.658203"/>
     <use xlink:href="#DejaVuSans-38" x="3558.671875"/>
     <use xlink:href="#DejaVuSans-38" x="3622.294922"/>
     <use xlink:href="#DejaVuSans-34" x="3685.917969"/>
     <use xlink:href="#DejaVuSans-36" x="3749.541016"/>
     <use xlink:href="#DejaVuSans-29" x="3813.164062"/>
    </g>
   </g>
   <g id="text_10">
    <!-- 1HV4_2 Chains B, D, F, H|HEMOGLOBIN BETA CHAIN|Anser indicus (8846) -->
    <g transform="translate(24.395294 29.070423) scale(0.1 -0.1)">
     <defs>
      <path id="DejaVuSans-54" d="M -19 4666 
L 3928 4666 
L 3928 4134 
L 2272 4134 
L 2272 0 
L 1638 0 
L 1638 4134 
L -19 4134 
L -19 4666 
z
" transform="scale(0.015625)"/>
     </defs>
     <use xlink:href="#DejaVuSans-31"/>
     <use xlink:href="#DejaVuSans-48" x="63.623047"/>
     <use xlink:href="#DejaVuSans-56" x="138.818359"/>
     <use xlink:href="#DejaVuSans-34" x="207.226562"/>
     <use xlink:href="#DejaVuSans-5f" x="270.849609"/>
     <use xlink:href="#DejaVuSans-32" x="320.849609"/>
     <use xlink:href="#DejaVuSans-20" x="384.472656"/>
     <use xlink:href="#DejaVuSans-43" x="416.259766"/>
     <use xlink:href="#DejaVuSans-68" x="486.083984"/>
     <use xlink:href="#DejaVuSans-61" x="549.462891"/>
     <use xlink:href="#DejaVuSans-69" x="610.742188"/>
     <use xlink:href="#DejaVuSans-6e" x="638.525391"/>
     <use xlink:href="#DejaVuSans-73" x="701.904297"/>
     <use xlink:href="#DejaVuSans-20" x="754.003906"/>
     <use xlink:href="#DejaVuSans-42" x="785.791016"/>
     <use xlink:href="#DejaVuSans-2c" x="854.394531"/>
     <use xlink:href="#DejaVuSans-20" x="886.181641"/>
     <use xlink:href="#DejaVuSans-44" x="917.96875"/>
     <use xlink:href="#DejaVuSans-2c" x="994.970703"/>
     <use xlink:href="#DejaVuSans-20" x="1026.757812"/>
     <use xlink:href="#DejaVuSans-46" x="1058.544922"/>
     <use xlink:href="#DejaVuSans-2c" x="1116.064453"/>
     <use xlink:href="#DejaVuSans-20" x="1147.851562"/>
     <use xlink:href="#DejaVuSans-48" x="1179.638672"/>
     <use xlink:href="#DejaVuSans-7c" x="1254.833984"/>
     <use xlink:href="#DejaVuSans-48" x="1288.525391"/>
     <use xlink:href="#DejaVuSans-45" x="1363.720703"/>
     <use xlink:href="#DejaVuSans-4d" x="1426.904297"/>
     <use xlink:href="#DejaVuSans-4f" x="1513.183594"/>
     <use xlink:href="#DejaVuSans-47" x="1591.894531"/>
     <use xlink:href="#DejaVuSans-4c" x="1669.384766"/>
     <use xlink:href="#DejaVuSans-4f" x="1721.472656"/>
     <use xlink:href="#DejaVuSans-42" x="1800.183594"/>
     <use xlink:href="#DejaVuSans-49" x="1868.787109"/>
     <use xlink:href="#DejaVuSans-4e" x="1898.279297"/>
     <use xlink:href="#DejaVuSans-20" x="1973.083984"/>
     <use xlink:href="#DejaVuSans-42" x="2004.871094"/>
     <use xlink:href="#DejaVuSans-45" x="2073.474609"/>
     <use xlink:href="#DejaVuSans-54" x="2136.658203"/>
     <use xlink:href="#DejaVuSans-41" x="2189.992188"/>
     <use xlink:href="#DejaVuSans-20" x="2258.400391"/>
     <use xlink:href="#DejaVuSans-43" x="2290.1875"/>
     <use xlink:href="#DejaVuSans-48" x="2360.011719"/>
     <use xlink:href="#DejaVuSans-41" x="2435.207031"/>
     <use xlink:href="#DejaVuSans-49" x="2503.615234"/>
     <use xlink:href="#DejaVuSans-4e" x="2533.107422"/>
     <use xlink:href="#DejaVuSans-7c" x="2607.912109"/>
     <use xlink:href="#DejaVuSans-41" x="2641.603516"/>
     <use xlink:href="#DejaVuSans-6e" x="2710.011719"/>
     <use xlink:href="#DejaVuSans-73" x="2773.390625"/>
     <use xlink:href="#DejaVuSans-65" x="2825.490234"/>
     <use xlink:href="#DejaVuSans-72" x="2887.013672"/>
     <use xlink:href="#DejaVuSans-20" x="2928.126953"/>
     <use xlink:href="#DejaVuSans-69" x="2959.914062"/>
     <use xlink:href="#DejaVuSans-6e" x="2987.697266"/>
     <use xlink:href="#DejaVuSans-64" x="3051.076172"/>
     <use xlink:href="#DejaVuSans-69" x="3114.552734"/>
     <use xlink:href="#DejaVuSans-63" x="3142.335938"/>
     <use xlink:href="#DejaVuSans-75" x="3197.316406"/>
     <use xlink:href="#DejaVuSans-73" x="3260.695312"/>
     <use xlink:href="#DejaVuSans-20" x="3312.794922"/>
     <use xlink:href="#DejaVuSans-28" x="3344.582031"/>
     <use xlink:href="#DejaVuSans-38" x="3383.595703"/>
     <use xlink:href="#DejaVuSans-38" x="3447.21875"/>
     <use xlink:href="#DejaVuSans-34" x="3510.841797"/>
     <use xlink:href="#DejaVuSans-36" x="3574.464844"/>
     <use xlink:href="#DejaVuSans-29" x="3638.087891"/>
    </g>
   </g>
  </g>
 </g>
 <defs>
  <clipPath id="p9011135d80">
   <rect x="0" y="11.791059" width="414.72" height="322.017882"/>
  </clipPath>
 </defs>
</svg>
